<svg xmlns="http://www.w3.org/2000/svg" xmlns:svg="http://www.w3.org/2000/svg" id="svg853" width="36" height="36" enable-background="new 0 0 24 24" version="1.1" viewBox="0 0 36 36" xml:space="preserve"><metadata id="metadata859"/><path id="path851" fill="#000" fill-opacity="1" stroke-linejoin="round" stroke-width=".2" d="m 32.9118,9.08316 -4.664,4.66384 -6.5,-6.49992 4.664,-4.6639 c 0.782,-0.78216 2.048,-0.78216 2.828,0 l 3.672,3.67194 c 0.782,0.77988 0.782,2.0459 0,2.82804 z M 5.99834,23.496 20.6274,8.36784 27.1274,14.8678 12.49832,29.996 H 5.99834 Z M 27.7414,4.0871 l -3.078,3.07796 3.6716,3.6715 3.078,-3.07798 z M 24.2144,14.9572 20.543,11.28564 8,24.3284 V 28 h 3.67156 z"/><g id="g961" transform="matrix(0.78947303,0,0,0.78947586,14.13663,-0.54841485)" style="stroke-width:1.26667"><path id="rect1443" d="m 23.892879,17.495348 v 21.742857 c 0,1.804458 -1.452685,3.257143 -3.257143,3.257143 h -31.485713 c -1.804458,0 -3.257144,-1.452685 -3.257144,-3.257143 V 7.7524915 c 0,-1.8044573 1.452686,-3.257143 3.257144,-3.257143 l 21.742856,-2e-7" style="fill:none;stroke:#000;stroke-width:2.53332;stroke-linejoin:round"/></g></svg>