<svg xmlns="http://www.w3.org/2000/svg" xmlns:svg="http://www.w3.org/2000/svg" id="svg6" width="76" height="76" enable-background="new 0 0 76 76" version="1.1" viewBox="0 0 76 76" xml:space="preserve"><metadata id="metadata12"/><path id="path4" fill="#000" fill-opacity="1" stroke-linejoin="round" stroke-width="1.723" d="m 62.999267,57.787149 c 1.8333,1.8333 1.8333,4.805628 0,6.638929 -1.8333,1.8333 -4.805628,1.8333 -6.638929,0 L 42.791435,50.857174 c -3.000589,1.828303 -6.525371,2.881516 -10.296224,2.881516 -10.944488,0 -19.816669,-8.872181 -19.816669,-19.816669 0,-10.944487 8.872181,-19.816668 19.816669,-19.816668 10.944487,0 19.816668,8.872181 19.816668,19.816668 0,3.770854 -1.053213,7.295636 -2.881516,10.296224 z M 19.571296,33.922021 c 0,7.13762 5.786295,12.923915 12.923915,12.923915 7.137619,0 12.923914,-5.786295 12.923914,-12.923915 0,-7.137619 -5.786295,-12.923914 -12.923914,-12.923914 -7.13762,0 -12.923915,5.786295 -12.923915,12.923914 z"/></svg>