<svg xmlns="http://www.w3.org/2000/svg" xmlns:ooo="http://xml.openoffice.org/svg/export" xmlns:svg="http://www.w3.org/2000/svg" id="svg66" width="48" height="48" fill-rule="evenodd" stroke-linejoin="round" stroke-width="28.222" preserveAspectRatio="xMidYMid" version="1.2" viewBox="0 0 1270 1270" xml:space="preserve"><metadata id="metadata70"/><defs id="defs8" class="ClipPathGroup"><clipPath id="presentation_clip_path" clipPathUnits="userSpaceOnUse"><rect id="rect2" width="2060" height="2060" x="0" y="0"/></clipPath><clipPath id="presentation_clip_path_shrink" clipPathUnits="userSpaceOnUse"><rect id="rect5" width="2056" height="2056" x="2" y="2"/></clipPath></defs><defs id="defs44" class="EmbeddedBulletChars"><g id="bullet-char-template-57356" transform="matrix(4.8828125e-4,0,0,-4.8828125e-4,0,0)"><path id="path14" d="M 580,1141 1163,571 580,0 -4,571 Z"/></g><g id="bullet-char-template-57354" transform="matrix(4.8828125e-4,0,0,-4.8828125e-4,0,0)"><path id="path17" d="M 8,1128 H 1137 V 0 H 8 Z"/></g><g id="bullet-char-template-10146" transform="matrix(4.8828125e-4,0,0,-4.8828125e-4,0,0)"><path id="path20" d="M 174,0 602,739 174,1481 1456,739 Z M 1358,739 309,1346 659,739 Z"/></g><g id="bullet-char-template-10132" transform="matrix(4.8828125e-4,0,0,-4.8828125e-4,0,0)"><path id="path23" d="M 2015,739 1276,0 H 717 l 543,543 H 174 v 393 h 1086 l -543,545 h 557 z"/></g><g id="bullet-char-template-10007" transform="matrix(4.8828125e-4,0,0,-4.8828125e-4,0,0)"><path id="path26" d="m 0,-2 c -7,16 -16,29 -25,39 l 381,530 c -94,256 -141,385 -141,387 0,25 13,38 40,38 9,0 21,-2 34,-5 21,4 42,12 65,25 l 27,-13 111,-251 280,301 64,-25 24,25 c 21,-10 41,-24 62,-43 C 886,937 835,863 770,784 769,783 710,716 594,584 L 774,223 c 0,-27 -21,-55 -63,-84 l 16,-20 C 717,90 699,76 672,76 641,76 570,178 457,381 L 164,-76 c -22,-34 -53,-51 -92,-51 -42,0 -63,17 -64,51 -7,9 -10,24 -10,44 0,9 1,19 2,30 z"/></g><g id="bullet-char-template-10004" transform="matrix(4.8828125e-4,0,0,-4.8828125e-4,0,0)"><path id="path29" d="M 285,-33 C 182,-33 111,30 74,156 52,228 41,333 41,471 c 0,78 14,145 41,201 34,71 87,106 158,106 53,0 88,-31 106,-94 l 23,-176 c 8,-64 28,-97 59,-98 l 735,706 c 11,11 33,17 66,17 42,0 63,-15 63,-46 V 965 c 0,-36 -10,-64 -30,-84 L 442,47 C 390,-6 338,-33 285,-33 Z"/></g><g id="bullet-char-template-9679" transform="matrix(4.8828125e-4,0,0,-4.8828125e-4,0,0)"><path id="path32" d="M 813,0 C 632,0 489,54 383,161 276,268 223,411 223,592 c 0,181 53,324 160,431 106,107 249,161 430,161 179,0 323,-54 432,-161 108,-107 162,-251 162,-431 0,-180 -54,-324 -162,-431 C 1136,54 992,0 813,0 Z"/></g><g id="bullet-char-template-8226" transform="matrix(4.8828125e-4,0,0,-4.8828125e-4,0,0)"><path id="path35" d="m 346,457 c -73,0 -137,26 -191,78 -54,51 -81,114 -81,188 0,73 27,136 81,188 54,52 118,78 191,78 73,0 134,-26 185,-79 51,-51 77,-114 77,-187 0,-75 -25,-137 -76,-188 -50,-52 -112,-78 -186,-78 z"/></g><g id="bullet-char-template-8211" transform="matrix(4.8828125e-4,0,0,-4.8828125e-4,0,0)"><path id="path38" d="M -4,459 H 1135 V 606 H -4 Z"/></g><g id="bullet-char-template-61548" transform="matrix(4.8828125e-4,0,0,-4.8828125e-4,0,0)"><path id="path41" d="m 173,740 c 0,163 58,303 173,419 116,115 255,173 419,173 163,0 302,-58 418,-173 116,-116 174,-256 174,-419 0,-163 -58,-303 -174,-418 C 1067,206 928,148 765,148 601,148 462,206 346,322 231,437 173,577 173,740 Z"/></g></defs><rect style="fill:#000;fill-opacity:1;stroke:none;stroke-width:556.562" id="rect1156" width="264.583" height="132.292" x="158.75" y="158.75"/><rect style="fill:#000;fill-opacity:1;stroke:none;stroke-width:556.562" id="rect1156-31" width="264.583" height="132.292" x="502.708" y="158.75"/><rect style="fill:#000;fill-opacity:1;stroke:none;stroke-width:556.484" id="rect1156-0" width="264.583" height="132.254" x="846.667" y="158.75"/><rect style="fill:#000;fill-opacity:1;stroke:none;stroke-width:556.561" id="rect1156-5" width="264.583" height="132.292" x="158.75" y="370.417"/><rect style="fill:#000;fill-opacity:1;stroke:none;stroke-width:556.561" id="rect1156-31-3" width="264.583" height="132.292" x="502.708" y="370.417"/><rect style="fill:#000;fill-opacity:1;stroke:none;stroke-width:556.484" id="rect1156-0-5" width="264.583" height="132.254" x="846.667" y="370.417"/><rect style="fill:#000;fill-opacity:.333333;stroke:none;stroke-width:556.561" id="rect1156-6" width="264.583" height="132.292" x="158.75" y="582.083"/><rect style="fill:#000;fill-opacity:.333333;stroke:none;stroke-width:556.561" id="rect1156-31-2" width="264.583" height="132.292" x="502.708" y="582.083"/><rect style="fill:#000;fill-opacity:.333333;stroke:none;stroke-width:556.484" id="rect1156-0-9" width="264.583" height="132.254" x="846.667" y="582.083"/><rect style="fill:#000;fill-opacity:.333333;stroke:none;stroke-width:556.561" id="rect1156-1" width="264.583" height="132.292" x="158.75" y="793.75"/><rect style="fill:#000;fill-opacity:.333333;stroke:none;stroke-width:556.561" id="rect1156-31-27" width="264.583" height="132.292" x="502.708" y="793.75"/><rect style="fill:#000;fill-opacity:.333333;stroke:none;stroke-width:556.484" id="rect1156-0-0" width="264.583" height="132.254" x="846.667" y="793.75"/><rect style="fill:#000;fill-opacity:.333333;stroke:none;stroke-width:556.561" id="rect1156-9" width="264.583" height="132.292" x="158.75" y="1005.417"/><rect style="fill:#000;fill-opacity:.333333;stroke:none;stroke-width:556.561" id="rect1156-31-36" width="264.583" height="132.292" x="502.708" y="1005.417"/><rect style="fill:#000;fill-opacity:.333333;stroke:none;stroke-width:556.484" id="rect1156-0-06" width="264.583" height="132.254" x="846.667" y="1005.417"/></svg>