<svg xmlns="http://www.w3.org/2000/svg" xmlns:ooo="http://xml.openoffice.org/svg/export" xmlns:svg="http://www.w3.org/2000/svg" id="svg95" width="48" height="48" fill-rule="evenodd" stroke-linejoin="round" stroke-width="28.222" preserveAspectRatio="xMidYMid" version="1.2" viewBox="0 0 1270 1270" xml:space="preserve"><metadata id="metadata99"/><defs id="defs8" class="ClipPathGroup"><marker style="overflow:visible" id="marker3506" orient="auto" refX="0" refY="0"><path style="fill-rule:evenodd;stroke:#fff;stroke-width:1pt;stroke-opacity:1;fill:#fff;fill-opacity:1" id="path3504" d="M 5.77,0.0 L -2.88,5.0 L -2.88,-5.0 L 5.77,0.0 z" transform="scale(-0.4)"/></marker><marker style="overflow:visible" id="TriangleInM" orient="auto" refX="0" refY="0"><path style="fill-rule:evenodd;stroke:#fff;stroke-width:1pt;stroke-opacity:1;fill:#fff;fill-opacity:1" id="path1944" d="M 5.77,0.0 L -2.88,5.0 L -2.88,-5.0 L 5.77,0.0 z" transform="scale(-0.4)"/></marker><marker style="overflow:visible" id="TriangleOutS" orient="auto" refX="0" refY="0"><path style="fill-rule:evenodd;stroke:#fff;stroke-width:1pt;stroke-opacity:1;fill:#fff;fill-opacity:1" id="path1956" d="M 5.77,0.0 L -2.88,5.0 L -2.88,-5.0 L 5.77,0.0 z" transform="scale(0.2)"/></marker><marker style="overflow:visible" id="TriangleOutM" orient="auto" refX="0" refY="0"><path style="fill-rule:evenodd;stroke:#fff;stroke-width:1pt;stroke-opacity:1;fill:#fff;fill-opacity:1" id="path1953" d="M 5.77,0.0 L -2.88,5.0 L -2.88,-5.0 L 5.77,0.0 z" transform="scale(0.4)"/></marker><marker style="overflow:visible" id="TriangleInS" orient="auto" refX="0" refY="0"><path style="fill-rule:evenodd;stroke:#fff;stroke-width:1pt;stroke-opacity:1;fill:#fff;fill-opacity:1" id="path1947" d="M 5.77,0.0 L -2.88,5.0 L -2.88,-5.0 L 5.77,0.0 z" transform="scale(-0.2)"/></marker><marker style="overflow:visible" id="Arrow2Send" orient="auto" refX="0" refY="0"><path style="fill-rule:evenodd;stroke-width:.625;stroke-linejoin:round;stroke:#fff;stroke-opacity:1;fill:#fff;fill-opacity:1" id="path1841" d="M 8.7185878,4.0337352 L -2.2072895,0.016013256 L 8.7185884,-4.0017078 C 6.9730900,-1.6296469 6.9831476,1.6157441 8.7185878,4.0337352 z" transform="scale(0.3) rotate(180) translate(-2.3,0)"/></marker><marker style="overflow:visible" id="marker2802" orient="auto" refX="0" refY="0"><path style="fill-rule:evenodd;stroke:#fff;stroke-width:1pt;stroke-opacity:1;fill:#fff;fill-opacity:1" id="path2800" d="M 0.0,0.0 L 5.0,-5.0 L -12.5,0.0 L 5.0,5.0 L 0.0,0.0 z" transform="scale(0.2) rotate(180) translate(6,0)"/></marker><marker style="overflow:visible" id="Arrow2Sstart" orient="auto" refX="0" refY="0"><path style="fill-rule:evenodd;stroke-width:.625;stroke-linejoin:round;stroke:#fff;stroke-opacity:1;fill:#fff;fill-opacity:1" id="path1838" d="M 8.7185878,4.0337352 L -2.2072895,0.016013256 L 8.7185884,-4.0017078 C 6.9730900,-1.6296469 6.9831476,1.6157441 8.7185878,4.0337352 z" transform="scale(0.3) translate(-2.3,0)"/></marker><marker style="overflow:visible" id="Arrow1Send" orient="auto" refX="0" refY="0"><path style="fill-rule:evenodd;stroke:#fff;stroke-width:1pt;stroke-opacity:1;fill:#fff;fill-opacity:1" id="path1823" d="M 0.0,0.0 L 5.0,-5.0 L -12.5,0.0 L 5.0,5.0 L 0.0,0.0 z" transform="scale(0.2) rotate(180) translate(6,0)"/></marker><marker style="overflow:visible" id="Arrow1Sstart" orient="auto" refX="0" refY="0"><path style="fill-rule:evenodd;stroke:#fff;stroke-width:1pt;stroke-opacity:1;fill:#fff;fill-opacity:1" id="path1820" d="M 0.0,0.0 L 5.0,-5.0 L -12.5,0.0 L 5.0,5.0 L 0.0,0.0 z" transform="scale(0.2) translate(6,0)"/></marker><marker style="overflow:visible" id="Arrow2Lend" orient="auto" refX="0" refY="0"><path style="fill-rule:evenodd;stroke-width:.625;stroke-linejoin:round;stroke:#fff;stroke-opacity:1;fill:#fff;fill-opacity:1" id="path1829" d="M 8.7185878,4.0337352 L -2.2072895,0.016013256 L 8.7185884,-4.0017078 C 6.9730900,-1.6296469 6.9831476,1.6157441 8.7185878,4.0337352 z" transform="scale(1.1) rotate(180) translate(1,0)"/></marker><marker style="overflow:visible" id="Arrow2Lstart" orient="auto" refX="0" refY="0"><path style="fill-rule:evenodd;stroke-width:.625;stroke-linejoin:round;stroke:#fff;stroke-opacity:1;fill:#fff;fill-opacity:1" id="path1826" d="M 8.7185878,4.0337352 L -2.2072895,0.016013256 L 8.7185884,-4.0017078 C 6.9730900,-1.6296469 6.9831476,1.6157441 8.7185878,4.0337352 z" transform="scale(1.1) translate(1,0)"/></marker><clipPath id="presentation_clip_path" clipPathUnits="userSpaceOnUse"><rect id="rect2" width="1300" height="1300" x="0" y="0"/></clipPath><clipPath id="presentation_clip_path_shrink" clipPathUnits="userSpaceOnUse"><rect id="rect5" width="1298" height="1298" x="1" y="1"/></clipPath></defs><defs id="defs44" class="EmbeddedBulletChars"><g id="bullet-char-template-57356" transform="matrix(4.8828125e-4,0,0,-4.8828125e-4,0,0)"><path id="path14" d="M 580,1141 1163,571 580,0 -4,571 Z"/></g><g id="bullet-char-template-57354" transform="matrix(4.8828125e-4,0,0,-4.8828125e-4,0,0)"><path id="path17" d="M 8,1128 H 1137 V 0 H 8 Z"/></g><g id="bullet-char-template-10146" transform="matrix(4.8828125e-4,0,0,-4.8828125e-4,0,0)"><path id="path20" d="M 174,0 602,739 174,1481 1456,739 Z M 1358,739 309,1346 659,739 Z"/></g><g id="bullet-char-template-10132" transform="matrix(4.8828125e-4,0,0,-4.8828125e-4,0,0)"><path id="path23" d="M 2015,739 1276,0 H 717 l 543,543 H 174 v 393 h 1086 l -543,545 h 557 z"/></g><g id="bullet-char-template-10007" transform="matrix(4.8828125e-4,0,0,-4.8828125e-4,0,0)"><path id="path26" d="m 0,-2 c -7,16 -16,29 -25,39 l 381,530 c -94,256 -141,385 -141,387 0,25 13,38 40,38 9,0 21,-2 34,-5 21,4 42,12 65,25 l 27,-13 111,-251 280,301 64,-25 24,25 c 21,-10 41,-24 62,-43 C 886,937 835,863 770,784 769,783 710,716 594,584 L 774,223 c 0,-27 -21,-55 -63,-84 l 16,-20 C 717,90 699,76 672,76 641,76 570,178 457,381 L 164,-76 c -22,-34 -53,-51 -92,-51 -42,0 -63,17 -64,51 -7,9 -10,24 -10,44 0,9 1,19 2,30 z"/></g><g id="bullet-char-template-10004" transform="matrix(4.8828125e-4,0,0,-4.8828125e-4,0,0)"><path id="path29" d="M 285,-33 C 182,-33 111,30 74,156 52,228 41,333 41,471 c 0,78 14,145 41,201 34,71 87,106 158,106 53,0 88,-31 106,-94 l 23,-176 c 8,-64 28,-97 59,-98 l 735,706 c 11,11 33,17 66,17 42,0 63,-15 63,-46 V 965 c 0,-36 -10,-64 -30,-84 L 442,47 C 390,-6 338,-33 285,-33 Z"/></g><g id="bullet-char-template-9679" transform="matrix(4.8828125e-4,0,0,-4.8828125e-4,0,0)"><path id="path32" d="M 813,0 C 632,0 489,54 383,161 276,268 223,411 223,592 c 0,181 53,324 160,431 106,107 249,161 430,161 179,0 323,-54 432,-161 108,-107 162,-251 162,-431 0,-180 -54,-324 -162,-431 C 1136,54 992,0 813,0 Z"/></g><g id="bullet-char-template-8226" transform="matrix(4.8828125e-4,0,0,-4.8828125e-4,0,0)"><path id="path35" d="m 346,457 c -73,0 -137,26 -191,78 -54,51 -81,114 -81,188 0,73 27,136 81,188 54,52 118,78 191,78 73,0 134,-26 185,-79 51,-51 77,-114 77,-187 0,-75 -25,-137 -76,-188 -50,-52 -112,-78 -186,-78 z"/></g><g id="bullet-char-template-8211" transform="matrix(4.8828125e-4,0,0,-4.8828125e-4,0,0)"><path id="path38" d="M -4,459 H 1135 V 606 H -4 Z"/></g><g id="bullet-char-template-61548" transform="matrix(4.8828125e-4,0,0,-4.8828125e-4,0,0)"><path id="path41" d="m 173,740 c 0,163 58,303 173,419 116,115 255,173 419,173 163,0 302,-58 418,-173 116,-116 174,-256 174,-419 0,-163 -58,-303 -174,-418 C 1067,206 928,148 765,148 601,148 462,206 346,322 231,437 173,577 173,740 Z"/></g></defs><path id="path1711" d="m 185.21138,132.29167 h 582.08344 c 93.6354,92.77554 196.4491,199.24151 291.04168,291.04169 V 1137.7084 H 185.21138 c -0.003,-331.56285 -0.005,-673.85383 0,-1005.41673 z M 978.96152,502.70836 H 687.9198 V 211.66668 c -130.64448,-0.26035 -292.69315,-0.93207 -423.33341,0 -3.58987,271.65204 0.54756,574.9867 0,846.66672 h 714.37513 c 0,-175.90782 0,-379.71718 0,-555.62504 z m -26.4584,-79.375 c -59.2538,-66.90902 -110.016,-115.04967 -185.2083,-193.04002 -0.5027,46.71084 -3.5888,146.52089 0,193.1194 54.0321,1.87404 131.2441,3.20931 185.2083,-0.0794 z" style="fill:#000;fill-opacity:1;stroke:none;stroke-width:10.7281;stroke-linejoin:round;paint-order:markers stroke fill"/><g id="g1804"><rect style="fill:#000;fill-opacity:1;stroke:none;stroke-width:146.762;stroke-linejoin:round;paint-order:markers stroke fill" id="rect1785" width="396.875" height="687.917" x="343.958" y="291.042"/><rect style="fill:#000;fill-opacity:1;stroke:none;stroke-width:128.718;stroke-linejoin:round;paint-order:markers stroke fill" id="rect1785-3" width="396.875" height="529.167" x="502.708" y="449.792"/></g><path style="fill:#fff;fill-opacity:1;stroke:#fff;stroke-width:61.85958333;stroke-linecap:butt;stroke-linejoin:round;stroke-miterlimit:0;stroke-dasharray:none;stroke-opacity:1;marker-start:url(#TriangleInS);marker-end:url(#TriangleOutS);paint-order:normal" id="path1806" d="M 474.21727,435.92827 769.3244,830.61449"/></svg>